<?xml version="1.0" encoding="UTF-8"?>
<svg width="752pt" height="752pt" version="1.1" viewBox="0 0 752 752" xmlns="http://www.w3.org/2000/svg">
 <g>
  <path d="m521.09 525.51-54.684-84.523c-3.4648-5.3633-8.8203-9.0469-15.07-10.371-3.582-0.75781-7.1836-0.59766-10.629 0.25781-0.066407-0.12109-0.070313-0.25781-0.14844-0.375l-16.484-25.473c-0.42188-0.65234-0.99609-1.1133-1.625-1.4766 24.562-22.191 38.66-54.164 38.098-87.637 32.105-4.2148 56.656-31.621 56.656-64.367 0-35.828-29.242-64.977-65.191-64.977-21.715 0-42.027 10.895-54.062 28.691-12.504-6.4297-25.898-10.48-39.875-12.008-25.551-2.9141-50.637 2.668-72.473 16.098l-0.63281 0.36719c-0.74219 0.43359-1.4688 0.85547-2.2266 1.3438-0.14844 0.097656-0.28906 0.19922-0.42578 0.30859-0.042968 0.035156-0.082031 0.066406-0.12109 0.10156-13.898 9.043-25.422 20.777-34.148 34.719-0.49609 0.71875-0.92578 1.4023-1.3633 2.1055l-0.43359 0.69141c-8.9531 15.133-14.398 32.379-15.746 49.859-1.3672 17.207 1.1914 34.711 7.3984 50.594 2.9219 7.5703 6.5469 14.68 10.758 21.109 16.719 25.891 42.5 43.703 72.598 50.156 8.1016 1.7383 16.25 2.5938 24.344 2.5938 15.996 0 31.75-3.3945 46.434-9.9414 0.082032 0.69141 0.28125 1.375 0.68359 2l16.707 25.82c-2.1797 2.8047-3.7852 6.0273-4.543 9.6016-1.3203 6.2266-0.12891 12.59 3.3438 17.91l54.688 84.578c0.68359 1.0586 1.7578 1.7969 2.9883 2.0586 0.32031 0.070313 0.65234 0.10547 0.98047 0.10547 0.91016 0 1.8047-0.26172 2.5781-0.76172l50.23-32.613c2.1914-1.4258 2.8164-4.3555 1.3984-6.5469zm-69.078-329.47c30.727 0 55.719 24.902 55.719 55.508 0 29.285-22.973 53.625-52.215 55.406-7.5664 0.32812-15.09-0.59375-22.184-3.1055-22.156-7.8516-37.043-28.871-37.043-52.301 0-2.0156 0.12891-4.1133 0.40234-6.4414 0.60938-5.5547 2.1289-11.07 4.4414-16.219 0.76953-1.7109 1.6289-3.3789 2.5703-4.9961 0.003907-0.003906 0.003907-0.011719 0.007813-0.015625 9.9219-17.168 28.43-27.836 48.301-27.836zm-24.715 115.64c0.5625 7.875 0.019531 15.723-1.625 23.375-0.003906 0.003906-0.003906 0.003906-0.003906 0.007812-4.5664 21.438-17.254 39.832-35.727 51.797-26.352 17.105-59.508 17.766-86.508 1.7266-10.953-6.5469-20.016-15.305-26.957-26.062-3.0859-4.6914-5.6367-9.6914-7.6016-14.91-4.4531-11.449-6.3008-23.949-5.3359-36.156 0.96094-12.465 4.8477-24.758 11.121-35.375l1.3359-2.0469c6.3516-10.121 14.613-18.512 24.492-24.891l2.4102-1.4922c12.789-7.8984 27.148-11.965 42.012-11.965 3.1211 0 6.2695 0.17969 9.4258 0.54297 11.469 1.25 22.75 4.9805 32.652 10.809-0.007813 0.125-0.003907 0.23438-0.015626 0.35938-0.097656 1.418-0.16016 2.8047-0.16016 4.1523 0 1.6836 0.070313 3.3555 0.19922 5.0156 0.042969 0.55078 0.13281 1.0898 0.1875 1.6367 0.11328 1.1016 0.22266 2.207 0.39062 3.2969 0.10156 0.64844 0.25 1.2852 0.36719 1.9258 0.18359 0.97266 0.35156 1.9453 0.57812 2.9062 0.16016 0.68359 0.36328 1.3516 0.54688 2.0273 0.24219 0.90234 0.47656 1.8047 0.75781 2.6914 0.21484 0.68359 0.47266 1.3516 0.71094 2.0273 0.30469 0.85547 0.59766 1.7188 0.9375 2.5586 0.26953 0.67578 0.57812 1.332 0.87109 1.9961 0.35938 0.81641 0.71484 1.6367 1.1094 2.4375 0.32422 0.66016 0.67969 1.3008 1.0234 1.9492 0.41406 0.77734 0.82812 1.5547 1.2734 2.3125 0.375 0.64062 0.78125 1.2656 1.1797 1.8906 0.46484 0.73438 0.92969 1.4688 1.4258 2.1836 0.42578 0.61328 0.875 1.2109 1.3203 1.8125 0.51563 0.69531 1.0352 1.3906 1.582 2.0625 0.47266 0.58594 0.96484 1.1523 1.457 1.7227 0.5625 0.65234 1.1328 1.2969 1.7227 1.9258 0.51953 0.55469 1.0586 1.0938 1.5977 1.6289 0.60937 0.60547 1.2227 1.2031 1.8555 1.7812 0.5625 0.51562 1.1367 1.0195 1.7188 1.5156 0.65234 0.55859 1.3164 1.1094 1.9922 1.6445 0.60156 0.47656 1.2109 0.93359 1.832 1.3906 0.69922 0.51172 1.4062 1.0117 2.1289 1.4961 0.64062 0.42969 1.2852 0.84766 1.9414 1.2578 0.73828 0.46094 1.4883 0.90234 2.25 1.3359 0.67187 0.38281 1.3516 0.75781 2.0391 1.1172 0.78125 0.41016 1.5781 0.79688 2.3828 1.1758 0.70313 0.33203 1.4062 0.65625 2.1211 0.96094 0.33203 0.14453 0.64844 0.30859 0.98438 0.44531zm-104.06 109.77c-27.621-5.9219-51.281-22.27-66.641-46.059-3.8633-5.8984-7.1797-12.406-9.8672-19.371-5.6953-14.578-8.0391-30.629-6.7852-46.43 1.2344-16.051 6.2344-31.883 14.387-45.664l0.38672-0.61719c0.35938-0.57422 0.70703-1.1367 1.2344-1.9062 8.1836-13.059 18.871-23.902 31.766-32.219 0.17969-0.11719 0.35156-0.24609 0.51172-0.38281 0.50391-0.31641 0.99609-0.59766 1.4961-0.89062l0.75391-0.4375c20.098-12.359 43.113-17.477 66.543-14.805 12.688 1.3867 24.844 5.0078 36.199 10.785-0.14062 0.29297-0.25 0.60156-0.38672 0.89844-0.29297 0.63281-0.55859 1.2812-0.83203 1.9219-0.53125 1.2539-1.0273 2.5195-1.4805 3.8047-0.24219 0.69141-0.47656 1.3789-0.69531 2.0781-0.42188 1.3438-0.78516 2.6992-1.1133 4.0625-0.074219 0.3125-0.18359 0.62109-0.25781 0.93359-10.227-5.4531-21.543-9.082-33.07-10.332-20.301-2.3203-40.168 2.0938-57.473 12.781l-2.4922 1.543c-11.125 7.1836-20.359 16.559-27.41 27.797l-1.3984 2.1523c-7.1172 12.031-11.445 25.738-12.523 39.633-1.0742 13.609 0.98438 27.555 5.9297 40.277 2.1953 5.8281 5.0664 11.457 8.5156 16.699 7.7188 11.957 17.824 21.723 30.047 29.027 14.527 8.6289 30.645 12.926 46.738 12.926 17.289 0 34.551-4.9609 49.773-14.84 20.598-13.344 34.742-33.859 39.84-57.77 1.5703-7.3203 2.2227-14.801 1.9844-22.316 0.11328 0.027343 0.22656 0.046875 0.33984 0.074219 1.1445 0.26562 2.2891 0.54297 3.4492 0.74609 0.71875 0.125 1.4453 0.19531 2.168 0.29688 1.082 0.15234 2.1562 0.31641 3.2461 0.41406 0.75391 0.066406 1.5156 0.082031 2.2773 0.12109 0.91406 0.050782 1.8281 0.13672 2.75 0.14844 0.45703 36.184-17.766 70.449-48.305 90.262h0.003906c-23.723 15.367-51.988 20.582-79.609 14.656zm76.707-1.9727c2.7266-1.4766 5.4219-3.0391 8.0508-4.7422h0.003906c2.6758-1.7383 5.2344-3.6094 7.7344-5.543 0.12109 0.33203 0.1875 0.67969 0.39062 0.99219l15.953 24.652-15.465 10.027-15.945-24.645c-0.19922-0.30859-0.48047-0.50391-0.72266-0.74219zm68.34 134.66-52.121-80.609c-2.0977-3.2109-2.8125-7.043-2.0195-10.785 0.79687-3.7539 3.0117-6.9766 6.1055-8.9844 0.046875-0.027344 0.38281-0.23047 0.42969-0.25781l17.898-11.598c2.3555-1.5391 5.0469-2.3359 7.7969-2.3359 0.99609 0 2 0.10547 3 0.31641 3.7656 0.79688 6.9922 3.0195 9.0859 6.2578l52.113 80.547z"/>
  <path d="m319.09 265.48c0.61719 0 1.2461-0.12109 1.8516-0.37891 1.7812-0.75781 3.6289-1.4336 5.4883-2.0039 2.5-0.76953 3.9023-3.4219 3.1367-5.918-0.76953-2.5039-3.4453-3.9023-5.918-3.1367-2.1719 0.66797-4.3281 1.457-6.4141 2.3438-2.4062 1.0234-3.5273 3.8047-2.5039 6.2148 0.76562 1.7969 2.5195 2.8789 4.3594 2.8789z"/>
  <path d="m343.22 375.47c-31.547 0-57.207-25.766-57.207-57.441 0-15.992 6.7188-31.387 18.434-42.234 1.918-1.7773 2.0312-4.7734 0.25781-6.6953-1.7852-1.918-4.7812-2.0352-6.6953-0.25781-13.645 12.637-21.469 30.562-21.469 49.184 0 36.895 29.914 66.91 66.68 66.91 2.6172 0 4.7344-2.1211 4.7344-4.7344 0-2.6094-2.1172-4.7305-4.7344-4.7305z"/>
  <path d="m452.02 279.38c-1.3984 0-2.7109 0.23047-3.6953 0.61328-4.7344 1.5742-7.9219 6.0039-7.9219 11.027 0 6.418 5.2109 11.645 11.613 11.645 0.82422 0 1.6523-0.089844 2.4062-0.25781 5.3359-1.1016 9.207-5.8906 9.207-11.387 0.003906-6.418-5.207-11.641-11.609-11.641zm0.49219 13.754c-0.019531 0.003906-0.47266 0.058594-0.49219 0.0625-1.1797 0-2.1445-0.97266-2.1445-2.1719 0-0.94922 0.5625-1.75 1.6367-2.1094 0.027344-0.007812 0.17188-0.058594 0.50781-0.058594 1.1797 0 2.1406 0.97266 2.1406 2.1719 0 1.0195-0.69141 1.9062-1.6484 2.1055z"/>
  <path d="m436.06 219.37c0.003906 0.050781 0.007812 0.10156 0.011718 0.14844l4.0859 40.902 0.24609 2.2695c0 6.3906 5.2109 11.59 11.613 11.59s11.613-5.1992 11.594-11.145l4.3516-43.625c0.003906-0.042968 0.007812-0.089843 0.011718-0.14062l0.24609-2.1289c0.019531-0.18359 0.03125-0.36719 0.03125-0.54688 0-1.8906-0.375-3.8398-1.1016-5.7734-1.7539-4.707-5.6797-8.3711-10.43-9.7734-1.4531-0.45703-3.082-0.69922-4.6992-0.69922-8.9531 0-16.238 7.2891-16.238 16.25 0 0.18359 0.011719 0.36719 0.03125 0.54688zm15.957-9.457c0.66797 0 1.3086 0.089844 1.9336 0.28516 1.9883 0.58594 3.6016 2.0898 4.3281 4.043 0.30078 0.79297 0.46875 1.5391 0.49609 2.2227l-4.6172 46.227c0 1.1875-0.94141 2.1172-2.1406 2.1172-1.2031 0-2.1445-0.92969-2.168-2.582l-4.332-43.234c0-0.18359-0.011719-0.36719-0.03125-0.54688l-0.23047-1.9922c0.125-3.6289 3.1133-6.5391 6.7617-6.5391z"/>
 </g>
</svg>
